<?xml version="1.0" standalone="no"?>
<!DOCTYPE svg PUBLIC "-//W3C//DTD SVG 1.1//EN" "http://www.w3.org/Graphics/SVG/1.1/DTD/svg11.dtd" >
<svg xmlns="http://www.w3.org/2000/svg" xmlns:xlink="http://www.w3.org/1999/xlink" version="1.1">
<metadata>
Created by FontForge 20170731 at Thu Jan 12 15:55:36 2012
 By Aleksey,,,
Copyright (c) 2010 by Aakash Soneri. All rights reserved.
</metadata>
<defs>
<font id="AccordAltBold" horiz-adv-x="525" >
  <font-face 
    font-family="AccordAltBold"
    font-weight="700"
    font-stretch="normal"
    units-per-em="1000"
    panose-1="2 0 0 0 0 0 0 0 0 0"
    ascent="750"
    descent="-250"
    x-height="500"
    cap-height="650"
    bbox="-83 -250.07 1496 907"
    underline-thickness="50"
    underline-position="-200"
    unicode-range="U+0020-FB02"
  />
<missing-glyph horiz-adv-x="218" 
 />
    <glyph glyph-name=".notdef" horiz-adv-x="218" 
 />
    <glyph glyph-name=".null" horiz-adv-x="0" 
 />
    <glyph glyph-name="nonmarkingreturn" horiz-adv-x="333" 
 />
    <glyph glyph-name="space" unicode=" " horiz-adv-x="218" 
 />
    <glyph glyph-name="exclam" unicode="!" horiz-adv-x="318" 
d="M103 650h113v-238q0 -38 -8 -117t-8 -117h-81q0 38 -8 117t-8 117v238zM87 61q0 29 21 50t51 21q29 0 50 -21t21 -50q0 -30 -21 -51t-50 -21q-30 0 -51 21t-21 51z" />
    <glyph glyph-name="quotedbl" unicode="&#x22;" horiz-adv-x="320" 
d="M194 514v209h84l-1 -209h-83zM43 514l-1 209h84v-209h-83z" />
    <glyph glyph-name="numbersign" unicode="#" horiz-adv-x="696" 
d="M359 0l39 152h-183l-38 -152h-97l39 152h-122v85h143l49 191h-147v86h167l39 150h97l-39 -150h182l39 150h97l-39 -150h113v-86h-134l-48 -191h137v-85h-159l-38 -152h-97zM285 428l-48 -191h182l49 191h-183z" />
    <glyph glyph-name="dollar" unicode="$" horiz-adv-x="489" 
d="M24 46l34 108q52 -37 119.5 -49.5t117 7.5t49.5 68q0 25 -17 42.5t-44.5 28.5t-60.5 21t-66 24t-60.5 34t-44.5 56t-17 84q0 72 40 117t105 62v157h115v-149q88 -8 149 -54l-34 -108q-47 37 -108 49t-104 -6.5t-43 -61.5q0 -37 32 -59.5t77.5 -36t91.5 -31t78 -57.5
t32 -102q0 -82 -47.5 -130.5t-123.5 -63.5v-152h-115v148q-92 10 -155 54z" />
    <glyph glyph-name="percent" unicode="%" horiz-adv-x="1096" 
d="M426 438q0 -106 -50.5 -164t-137.5 -58q-86 0 -137 58.5t-51 163.5t51 163.5t137 58.5q87 0 137.5 -58.5t50.5 -163.5zM312 438q0 60 -18 86t-56 26q-37 0 -55 -26t-18 -86q0 -63 17.5 -88t55.5 -25q39 0 56.5 25t17.5 88zM1046 211q0 -106 -50.5 -164t-137.5 -58
q-86 0 -137 58.5t-51 163.5t51 163.5t137 58.5q87 0 137.5 -58.5t50.5 -163.5zM932 211q0 59 -18 85.5t-56 26.5q-37 0 -55 -26t-18 -86q0 -62 17.5 -87t55.5 -25t56 25t18 87zM653 650h129l-339 -650h-128z" />
    <glyph glyph-name="ampersand" unicode="&#x26;" horiz-adv-x="618" 
d="M617 295h-98v-70q0 -125 -68 -180.5t-175 -55.5q-95 0 -169.5 51.5t-74.5 146.5q0 112 103 160q-81 45 -81 142q0 73 63.5 122t158.5 49q81 0 150 -36l-52 -98q-46 22 -101 22q-45 0 -72 -19.5t-27 -53.5q0 -83 103 -83h122v100h120v-100h98v-97zM153 196q0 -51 37 -74.5
t86 -23.5q123 0 123 127v70h-122q-55 0 -89.5 -25.5t-34.5 -73.5z" />
    <glyph glyph-name="quotesingle" unicode="'" horiz-adv-x="170" 
d="M43 514l-1 209h86l-1 -209h-84z" />
    <glyph glyph-name="parenleft" unicode="(" horiz-adv-x="384" 
d="M52 250q0 155 51.5 277.5t163.5 222.5l71 -64q-91 -70 -142 -180t-51 -256q0 -286 193 -436l-71 -64q-112 100 -163.5 222.5t-51.5 277.5z" />
    <glyph glyph-name="parenright" unicode=")" horiz-adv-x="384" 
d="M332 250q0 -155 -51.5 -277.5t-163.5 -222.5l-71 64q193 150 193 436q0 146 -51 256t-142 180l71 64q112 -100 163.5 -222.5t51.5 -277.5z" />
    <glyph glyph-name="asterisk" unicode="*" horiz-adv-x="478" 
d="M286 747l-7 -142l131 52l28 -88l-135 -38l87 -108l-74 -54l-78 116l-76 -115l-75 54l89 108l-136 38l29 88l131 -51l-7 140h93z" />
    <glyph glyph-name="plus" unicode="+" horiz-adv-x="629" 
d="M586 381v-110h-213v-202h-118v202h-213v110h213v202h118v-202h213z" />
    <glyph glyph-name="comma" unicode="," horiz-adv-x="232" 
d="M34 60q0 29 21 50t51 21q38 0 57 -29.5t18 -72.5q0 -49 -25.5 -106t-84.5 -88l-35 33q57 53 62 121q-28 3 -46 23t-18 48z" />
    <glyph glyph-name="hyphen" unicode="-" horiz-adv-x="334" 
d="M315 305v-110h-296v110h296z" />
    <glyph glyph-name="period" unicode="." horiz-adv-x="238" 
d="M48 60q0 29 21 50t50 21q30 0 51 -21t21 -50q0 -30 -21 -51t-51 -21q-29 0 -50 21t-21 51z" />
    <glyph glyph-name="slash" unicode="/" horiz-adv-x="319" 
d="M237 750h95l-252 -780h-93z" />
    <glyph glyph-name="zero" unicode="0" horiz-adv-x="557" 
d="M404 305v40q0 109 -32.5 156t-93.5 47q-125 0 -125 -203v-40q0 -111 32.5 -158t92.5 -47q61 0 93.5 47t32.5 158zM32 305v40q0 162 66 238.5t180 76.5q115 0 181 -76.5t66 -238.5v-40q0 -162 -66 -239t-181 -77q-114 0 -180 77t-66 239z" />
    <glyph glyph-name="one" unicode="1" horiz-adv-x="305" 
d="M1 538v112h254v-650h-120v538h-134z" />
    <glyph glyph-name="two" unicode="2" horiz-adv-x="483" 
d="M461 438q0 -44 -15.5 -82.5t-53 -79t-69.5 -68t-96 -78.5q-16 -13 -24 -19h258v-111h-443v111q39 31 95 73.5t82.5 63.5t60.5 50.5t48.5 49t25.5 43t11 47.5q0 48 -29.5 79t-95.5 31q-43 0 -89.5 -16t-76.5 -39l-35 107q85 60 201 60q102 0 173.5 -58.5t71.5 -163.5z" />
    <glyph glyph-name="three" unicode="3" horiz-adv-x="479" 
d="M164 289v103h38q119 0 119 79q0 77 -108 77q-80 0 -153 -53l-36 109q34 18 53.5 27.5t57.5 19t78 9.5q107 0 168 -51t61 -138t-82 -134q92 -50 92 -143q0 -96 -64.5 -150.5t-174.5 -54.5q-102 0 -199 61l36 108q71 -58 163 -58q64 0 91 23t27 71q0 41 -31 68t-98 27h-38z
" />
    <glyph glyph-name="four" unicode="4" horiz-adv-x="523" 
d="M26 244l183 406h126l-183 -406h216v246h120v-490h-120v132h-342v112z" />
    <glyph glyph-name="five" unicode="5" horiz-adv-x="495" 
d="M49 300v350h404v-112h-284v-127h44q123 0 191.5 -57.5t68.5 -154.5q0 -103 -69 -156.5t-177 -53.5q-66 0 -110 12.5t-94 47.5l35 106q73 -55 165 -55q130 0 130 96q0 62 -41.5 83t-139.5 21h-123z" />
    <glyph glyph-name="six" unicode="6" horiz-adv-x="520" 
d="M280 405q97 0 157.5 -50t60.5 -151q0 -108 -58.5 -161.5t-151.5 -53.5q-74 0 -126 24.5t-79.5 71t-39 101.5t-11.5 127q0 174 63 260.5t201 86.5q112 0 196 -60l-35 -107q-70 55 -165 55q-70 0 -103 -44.5t-33 -120.5q53 22 124 22zM276 303q-67 0 -120 -26
q0 -89 27 -133t102 -44q39 0 66 26t27 78q0 54 -29 76.5t-73 22.5z" />
    <glyph glyph-name="seven" unicode="7" horiz-adv-x="469" 
d="M198 0h-128l260 538h-319v112h447v-112z" />
    <glyph glyph-name="eight" unicode="8" horiz-adv-x="536" 
d="M268 660q95 0 159 -51.5t64 -121.5q0 -93 -78 -139q48 -22 74 -63.5t26 -94.5q0 -85 -65.5 -143t-179.5 -58t-179.5 58t-65.5 143q0 53 26 94.5t74 63.5q-78 47 -78 139q0 70 64.5 121.5t158.5 51.5zM144 198q0 -45 32.5 -71.5t91.5 -26.5t92 26t33 72q0 44 -33 71
t-92 27q-58 0 -91 -27t-33 -71zM165 470q0 -36 27.5 -57t75.5 -21t75.5 21t27.5 57q0 32 -27 55.5t-76 23.5q-50 0 -76.5 -23t-26.5 -56z" />
    <glyph glyph-name="nine" unicode="9" horiz-adv-x="520" 
d="M241 245q-97 0 -158 50t-61 150q0 107 59 161t151 54q75 0 126.5 -24.5t79 -71t39 -101t11.5 -126.5q0 -176 -63 -262t-202 -86q-112 0 -194 60l34 106q72 -55 165 -55q136 0 136 167q-53 -22 -123 -22zM244 348q69 0 120 26q0 87 -27 130.5t-101 43.5q-39 0 -66.5 -25.5
t-27.5 -77.5q0 -53 29.5 -75t72.5 -22z" />
    <glyph glyph-name="colon" unicode=":" horiz-adv-x="238" 
d="M48 60q0 29 21 50t50 21q30 0 51 -21t21 -50q0 -30 -21 -51t-51 -21q-29 0 -50 21t-21 51zM48 440q0 30 21 51t50 21q30 0 51 -21.5t21 -50.5t-21 -50t-51 -21q-29 0 -50 21t-21 50z" />
    <glyph glyph-name="semicolon" unicode=";" horiz-adv-x="237" 
d="M47 440q0 30 21 51t51 21q29 0 50 -21.5t21 -50.5t-21 -50t-50 -21q-30 0 -51 21t-21 50zM47 60q0 29 21 50t51 21q38 0 56.5 -29t18.5 -73q-1 -50 -26.5 -107t-83.5 -87l-36 33q58 52 62 121q-27 3 -45 23t-18 48z" />
    <glyph glyph-name="less" unicode="&#x3c;" horiz-adv-x="551" 
d="M514 129v-102l-477 261v71l477 260v-101l-358 -195z" />
    <glyph glyph-name="equal" unicode="=" horiz-adv-x="560" 
d="M517 249v-84h-475v84h475zM517 486v-84h-475v84h475z" />
    <glyph glyph-name="greater" unicode="&#x3e;" horiz-adv-x="551" 
d="M37 27v102l358 194l-358 195v101l477 -260v-71z" />
    <glyph glyph-name="question" unicode="?" horiz-adv-x="485" 
d="M79 61q0 29 21 50t51 21q29 0 50 -21t21 -50q0 -30 -21 -51t-50 -21q-30 0 -51 21t-21 51zM453 462q0 -41 -15.5 -74t-42.5 -56t-51.5 -37.5t-54.5 -29.5q-7 -3 -11 -5q-67 -33 -67 -80h-120q0 105 116 166q11 6 34 17t35.5 18.5t27.5 19.5t22 27t7 34q0 87 -125 87
q-83 0 -137 -28l-35 107q74 32 172 32q109 0 177 -52t68 -146z" />
    <glyph glyph-name="at" unicode="@" horiz-adv-x="1138" 
d="M978 311q0 99 -30.5 169t-88.5 110t-131 58t-168 18q-190 0 -295 -99.5t-105 -305.5q0 -421 409 -427q170 -2 341 53l28 -84q-184 -55 -369 -53q-85 1 -158.5 18.5t-137.5 56t-109 96.5t-71 144.5t-26 195.5q1 233 127 361t366 128q112 0 201.5 -23t160.5 -73t110 -137
t39 -206q0 -66 -10.5 -121t-33.5 -102.5t-66.5 -74.5t-102.5 -27q-110 0 -142 88q-14 -35 -57.5 -61.5t-106.5 -26.5q-57 0 -99.5 20t-65 47.5t-35.5 67t-16.5 69t-3.5 61.5q0 34 6.5 67t24 69.5t44.5 63.5t72.5 44.5t103.5 17.5t112 -17t88 -37v-284q0 -57 17 -81t58 -24
q120 0 120 241zM690 249v151q-47 29 -107 29q-45 0 -77.5 -15.5t-49 -42t-24 -56t-7.5 -64.5v-27.5t2 -31t6.5 -36t13.5 -31.5t22.5 -29t34.5 -18t48 -8q71 0 104.5 41.5t33.5 137.5z" />
    <glyph glyph-name="A" unicode="A" horiz-adv-x="620" 
d="M497 0l-53 140h-269l-53 -140h-122l249 650h122l249 -650h-123zM309 498l-93 -247h186z" />
    <glyph glyph-name="B" unicode="B" horiz-adv-x="573" 
d="M50 650h239q122 0 180 -49t58 -132q0 -89 -79 -132q99 -46 99 -149q0 -87 -60 -137.5t-187 -50.5h-250v650zM300 281h-130v-170h130q127 0 127 85t-127 85zM289 538h-119v-154h119q62 0 90 21.5t28 55.5q0 77 -118 77z" />
    <glyph glyph-name="C" unicode="C" horiz-adv-x="530" 
d="M152 349v-48q0 -201 168 -201q47 0 91.5 17t64.5 37l36 -109q-81 -56 -192 -56q-133 0 -210.5 76.5t-77.5 235.5v48q0 158 78 234.5t210 76.5q96 0 192 -56l-36 -109q-75 53 -156 53q-168 0 -168 -199z" />
    <glyph glyph-name="D" unicode="D" horiz-adv-x="576" 
d="M50 0v650h202q292 0 292 -300v-51q0 -299 -292 -299h-202zM424 299v51q0 103 -42 145.5t-130 42.5h-82v-427h82q88 0 130 42.5t42 145.5z" />
    <glyph glyph-name="E" unicode="E" horiz-adv-x="518" 
d="M170 287v-176h334v-111h-454v650h454v-112h-334v-140h294v-111h-294z" />
    <glyph glyph-name="F" unicode="F" horiz-adv-x="501" 
d="M170 287v-287h-120v650h445v-112h-325v-140h285v-111h-285z" />
    <glyph glyph-name="G" unicode="G" horiz-adv-x="569" 
d="M309 261v103h228v-313q-94 -62 -209 -62q-136 0 -216 76.5t-80 235.5v48q0 158 80 234.5t216 76.5q43 0 82 -9t61.5 -19t56.5 -29l-35 -108q-80 53 -165 53q-176 0 -176 -199v-48q0 -201 176 -201q44 0 89 14v147h-108z" />
    <glyph glyph-name="H" unicode="H" horiz-adv-x="594" 
d="M170 287v-287h-120v650h120v-252h254v252h120v-650h-120v287h-254z" />
    <glyph glyph-name="I" unicode="I" horiz-adv-x="220" 
d="M50 0v650h120v-650h-120z" />
    <glyph glyph-name="J" unicode="J" horiz-adv-x="433" 
d="M383 650v-436q0 -225 -200 -225q-90 0 -171 43l35 108q61 -40 127 -40q45 0 67 23t22 91v324h-201v112h321z" />
    <glyph glyph-name="K" unicode="K" horiz-adv-x="575" 
d="M183 340l230 310h142l-230 -310l250 -340h-142zM50 0v650h120v-650h-120z" />
    <glyph glyph-name="L" unicode="L" horiz-adv-x="473" 
d="M50 0v650h120v-539h294v-111h-414z" />
    <glyph glyph-name="M" unicode="M" horiz-adv-x="700" 
d="M50 0v650h115l186 -293l185 293h114v-650h-120v434l-179 -283l-181 283v-434h-120z" />
    <glyph glyph-name="N" unicode="N" horiz-adv-x="594" 
d="M50 0v650h115l259 -424v424h120v-650h-114l-260 422v-422h-120z" />
    <glyph glyph-name="O" unicode="O" horiz-adv-x="599" 
d="M446 301v47q0 107 -38 153.5t-108 46.5q-71 0 -109 -46.5t-38 -153.5v-47q0 -108 38 -154.5t109 -46.5q70 0 108 46.5t38 154.5zM32 301v47q0 160 72.5 236t195.5 76t195 -76t72 -236v-47q0 -160 -72 -236t-195 -76q-124 0 -196 76t-72 236z" />
    <glyph glyph-name="P" unicode="P" horiz-adv-x="558" 
d="M50 650h247q127 0 187 -57t60 -158q0 -100 -60 -156.5t-187 -56.5h-127v-222h-120v650zM297 538h-127v-205h127q69 0 98 25t29 77t-28.5 77.5t-98.5 25.5z" />
    <glyph glyph-name="Q" unicode="Q" horiz-adv-x="599" 
d="M101 -152v111q31 27 73 28t84 -13.5t84.5 -29t84.5 -13.5t73 28v-111q-31 -28 -73 -28.5t-84 14t-84.5 29t-84.5 14t-73 -28.5zM446 301v47q0 107 -38 153.5t-108 46.5q-71 0 -109 -46.5t-38 -153.5v-47q0 -108 38 -154.5t109 -46.5q70 0 108 46.5t38 154.5zM32 301v47
q0 160 72.5 236t195.5 76t195 -76t72 -236v-47q0 -160 -72 -236t-195 -76q-124 0 -196 76t-72 236z" />
    <glyph glyph-name="R" unicode="R" horiz-adv-x="595" 
d="M458 0l-160 243h-128v-243h-120v650h247q128 0 187.5 -54t59.5 -150q0 -135 -124 -182l175 -264h-137zM297 538h-127v-183h127q127 0 127 91q0 46 -29 69t-98 23z" />
    <glyph glyph-name="S" unicode="S" horiz-adv-x="489" 
d="M24 46l34 108q52 -37 119.5 -49.5t117 7.5t49.5 68q0 25 -17 42.5t-44.5 28.5t-60.5 21t-66 24t-60.5 34t-44.5 56t-17 84q0 75 45.5 122.5t110 60t134.5 0t119 -49.5l-34 -108q-47 37 -108 49t-104 -6.5t-43 -61.5q0 -37 32 -59.5t77.5 -36t91.5 -31t78 -57.5t32 -102
q0 -81 -49 -131.5t-119 -63t-145 0.5t-128 50z" />
    <glyph glyph-name="T" unicode="T" horiz-adv-x="552" 
d="M19 538v112h513v-112h-196v-538h-120v538h-197z" />
    <glyph glyph-name="U" unicode="U" horiz-adv-x="598" 
d="M42 304v346h120v-346q0 -110 35.5 -157t101.5 -47t101.5 47t35.5 157v346h120v-346q0 -162 -69.5 -238.5t-187.5 -76.5t-187.5 76.5t-69.5 238.5z" />
    <glyph glyph-name="V" unicode="V" horiz-adv-x="594" 
d="M594 650l-236 -650h-122l-236 650h122l175 -497l175 497h122z" />
    <glyph glyph-name="W" unicode="W" horiz-adv-x="906" 
d="M513 650l136 -469l136 469h120l-196 -650h-120l-136 452l-136 -452h-120l-196 650h120l136 -469l136 469h120z" />
    <glyph glyph-name="X" unicode="X" horiz-adv-x="590" 
d="M157 650l138 -216l138 216h137l-207 -310l227 -340h-137l-158 245l-158 -245h-137l226 340l-206 310h137z" />
    <glyph glyph-name="Y" unicode="Y" horiz-adv-x="618" 
d="M618 650l-248 -398v-252h-121v250l-249 400h136l173 -290l173 290h136z" />
    <glyph glyph-name="Z" unicode="Z" 
d="M25 538v112h475v-95l-337 -444h357v-111h-515v94l337 444h-317z" />
    <glyph glyph-name="bracketleft" unicode="[" horiz-adv-x="360" 
d="M310 -166v-84h-230v1000h230v-84h-137v-832h137z" />
    <glyph glyph-name="backslash" unicode="\" horiz-adv-x="320" 
d="M-13 750h95l250 -780h-92z" />
    <glyph glyph-name="bracketright" unicode="]" horiz-adv-x="360" 
d="M50 -250v84h138v832h-138v84h231v-1000h-231z" />
    <glyph glyph-name="asciicircum" unicode="^" horiz-adv-x="568" 
d="M328 710l198 -407h-105l-138 314l-138 -315h-103l197 408h89z" />
    <glyph glyph-name="underscore" unicode="_" horiz-adv-x="521" 
d="M519 -10v-92h-518v92h518z" />
    <glyph glyph-name="grave" unicode="`" horiz-adv-x="305" 
d="M161 750l-101 136h109l76 -136h-84z" />
    <glyph glyph-name="a" unicode="a" horiz-adv-x="487" 
d="M453 324v-309q-87 -26 -219 -26q-89 0 -152 44t-63 126v7q0 71 62.5 110t176.5 42q27 1 79 3v20q0 61 -109 61q-79 0 -151 -31q-6 17 -17 52t-17 52q96 36 194 36q99 0 157.5 -44.5t58.5 -142.5zM337 106v124q-108 -1 -155 -13t-47 -51v-7q0 -31 28 -46t74 -15
q55 0 100 8z" />
    <glyph glyph-name="b" unicode="b" horiz-adv-x="517" 
d="M50 15v685h116v-202q33 13 80 13q108 0 173.5 -64t65.5 -189v-16q0 -123 -64 -188t-173 -65q-119 0 -198 26zM368 242v16q0 82 -33.5 113t-96.5 31q-46 0 -72 -15v-281q37 -8 77 -8q63 0 94 31.5t31 112.5z" />
    <glyph glyph-name="c" unicode="c" horiz-adv-x="451" 
d="M32 247v12q0 124 67.5 188t178.5 64q77 0 151 -44q-3 -9 -15 -45.5t-18 -55.5q-53 36 -118 36q-129 0 -129 -143v-12q0 -77 37.5 -113t101.5 -36q63 0 117 28q6 -19 17.5 -54t15.5 -46q-65 -37 -150 -37q-119 0 -187.5 72t-68.5 186z" />
    <glyph glyph-name="d" unicode="d" horiz-adv-x="517" 
d="M467 700v-685q-78 -26 -197 -26q-110 0 -174 65t-64 188v16q0 125 65.5 189t173.5 64q47 0 80 -13v202h116zM149 258v-16q0 -81 31 -112.5t94 -31.5q39 0 77 8v281q-30 15 -71 15q-64 0 -97.5 -31t-33.5 -113z" />
    <glyph glyph-name="e" unicode="e" horiz-adv-x="518" 
d="M487 258v-51h-336v-5q0 -48 35.5 -76t97.5 -28q93 0 160 23l34 -104q-87 -28 -194 -28q-121 0 -186.5 62t-65.5 191v16q0 129 60 191t168 62t167.5 -62t59.5 -191zM151 298v-5h217v5q0 50 -29 77t-79 27q-51 0 -80 -27t-29 -77z" />
    <glyph glyph-name="f" unicode="f" horiz-adv-x="333" 
d="M50 0v524q0 187 186 187q76 0 133 -27l-34 -104q-46 22 -99 22q-70 0 -70 -78v-24h167v-110h-167v-390h-116z" />
    <glyph glyph-name="g" unicode="g" horiz-adv-x="517" 
d="M467 485v-517q0 -107 -62 -162.5t-164 -55.5q-108 0 -195 46q30 92 33 103q66 -39 162 -39q110 0 110 108v29q-33 -8 -90 -8q-103 0 -166 66.5t-63 191.5v11q0 126 69.5 189.5t189.5 63.5q110 0 176 -26zM149 258v-11q0 -74 25 -107.5t74 -39.5q6 -1 37 -1q32 0 66 8v287
q-34 8 -71 8q-65 0 -98 -31.5t-33 -112.5z" />
    <glyph glyph-name="h" unicode="h" 
d="M50 0v700h116v-197q80 8 100 8q99 0 158.5 -54.5t59.5 -164.5v-292h-115v301q0 55 -28.5 78t-82.5 23q-58 0 -92 -12v-390h-116z" />
    <glyph glyph-name="i" unicode="i" horiz-adv-x="221" 
d="M53 0v500h116v-500h-116zM40 637q0 29 21 49.5t50 20.5t49.5 -20.5t20.5 -49.5t-20.5 -50t-49.5 -21t-50 21t-21 50z" />
    <glyph glyph-name="j" unicode="j" horiz-adv-x="225" 
d="M170 500v-568q0 -95 -46.5 -138.5t-123.5 -43.5q-46 0 -79 20l34 102q18 -12 45 -12q54 0 54 72v568h116zM42 637q0 29 20.5 49.5t49.5 20.5t50 -20.5t21 -49.5t-21 -50t-50 -21t-49.5 21t-20.5 50z" />
    <glyph glyph-name="k" unicode="k" horiz-adv-x="536" 
d="M179 263l192 237h145l-192 -237l212 -263h-145zM50 0v700h116v-700h-116z" />
    <glyph glyph-name="l" unicode="l" horiz-adv-x="266" 
d="M50 174v526h116v-527q0 -73 38 -73q14 0 30 7l33 -103q-41 -13 -80 -13q-137 0 -137 183z" />
    <glyph glyph-name="m" unicode="m" horiz-adv-x="798" 
d="M50 0v485q83 26 205 26q84 0 132 -41q61 41 163 41q94 0 150.5 -55t56.5 -164v-292h-115v301q0 55 -25.5 78t-74.5 23q-60 0 -99 -15q18 -46 18 -95v-292h-115v301q0 55 -25.5 78t-74.5 23q-44 0 -80 -7v-395h-116z" />
    <glyph glyph-name="n" unicode="n" 
d="M50 0v485q87 26 216 26q99 0 158.5 -54.5t59.5 -164.5v-292h-115v301q0 55 -28.5 78t-82.5 23q-51 0 -92 -7v-395h-116z" />
    <glyph glyph-name="o" unicode="o" horiz-adv-x="529" 
d="M380 245v10q0 81 -28.5 114t-86.5 33t-87 -33t-29 -114v-10q0 -81 29 -114t87 -33t86.5 33t28.5 114zM32 245v10q0 130 63 193t170 63q106 0 169 -63t63 -193v-10q0 -130 -63 -193t-169 -63q-107 0 -170 63t-63 193z" />
    <glyph glyph-name="p" unicode="p" horiz-adv-x="517" 
d="M50 -250v735q78 26 196 26q110 0 174.5 -65t64.5 -188v-16q0 -125 -65 -189t-172 -64q-49 0 -82 13v-252h-116zM368 242v16q0 81 -31 112.5t-95 31.5q-38 0 -76 -8v-281q24 -15 73 -15q63 0 96 31t33 113z" />
    <glyph glyph-name="q" unicode="q" horiz-adv-x="517" 
d="M467 485v-735h-116v252q-33 -13 -81 -13q-107 0 -172.5 64t-65.5 189v16q0 123 64.5 188t174.5 65q118 0 196 -26zM149 258v-16q0 -82 33 -113t96 -31q49 0 73 15v281q-34 8 -76 8q-64 0 -95 -31.5t-31 -112.5z" />
    <glyph glyph-name="r" unicode="r" horiz-adv-x="349" 
d="M50 0v485q73 26 179 26q61 0 119 -14l-35 -106q-37 10 -76 10q-35 0 -71 -6v-395h-116z" />
    <glyph glyph-name="s" unicode="s" horiz-adv-x="454" 
d="M32 26l34 104q32 -20 89.5 -28t103.5 1.5t46 35.5q0 21 -19.5 34t-48.5 18t-62.5 15.5t-62.5 24.5t-48.5 46t-19.5 79q0 61 41.5 100t100 49t121 0.5t105.5 -38.5l-34 -105q-33 25 -85.5 35t-92 -0.5t-39.5 -38.5q0 -23 27 -36t65.5 -21t76.5 -20.5t65 -45t27 -85.5
q0 -67 -47.5 -107.5t-112.5 -48.5t-129 0.5t-101 31.5z" />
    <glyph glyph-name="t" unicode="t" horiz-adv-x="386" 
d="M50 177v473h116v-150h176v-110h-176v-214q0 -77 70 -77q61 0 107 23l33 -102q-56 -30 -140 -30q-186 0 -186 187z" />
    <glyph glyph-name="u" unicode="u" 
d="M475 500v-485q-101 -26 -216 -26q-99 0 -158.5 55t-59.5 164v292h115v-301q0 -55 28.5 -78t83.5 -23q57 0 91 7v395h116z" />
    <glyph glyph-name="v" unicode="v" horiz-adv-x="520" 
d="M122 500l138 -359l138 359h122l-200 -500h-121l-199 500h122z" />
    <glyph glyph-name="w" unicode="w" horiz-adv-x="812" 
d="M129 500l108 -349l109 349h120l108 -349l109 349h120l-168 -500h-121l-109 321l-107 -321h-121l-168 500h120z" />
    <glyph glyph-name="x" unicode="x" horiz-adv-x="540" 
d="M162 500l108 -150l108 150h142l-179 -237l199 -263h-142l-128 175l-128 -175h-142l199 263l-179 237h142z" />
    <glyph glyph-name="y" unicode="y" 
d="M475 500v-532q0 -107 -62 -162.5t-164 -55.5q-110 0 -197 46l34 103q66 -39 163 -39q110 0 110 108v31q-39 -10 -100 -10q-96 0 -157 53.5t-61 165.5v292h115v-301q0 -55 28.5 -78t83.5 -23q46 0 91 8v394h116z" />
    <glyph glyph-name="z" unicode="z" horiz-adv-x="488" 
d="M27 390v110h434v-110l-273 -281h273v-109h-434v109l273 281h-273z" />
    <glyph glyph-name="braceleft" unicode="{" horiz-adv-x="520" 
d="M63 217v84h55q55 0 83.5 39.5t28.5 112.5v100q0 94 47 145.5t127 51.5h70v-84h-68q-44 0 -64 -32.5t-20 -102.5v-97q0 -132 -83 -175q83 -41 83 -175v-115q0 -70 20 -102.5t64 -32.5h68v-84h-70q-78 0 -126 51.5t-48 145.5v118q0 73 -28.5 112.5t-83.5 39.5h-55z" />
    <glyph glyph-name="bar" unicode="|" horiz-adv-x="253" 
d="M173 750v-1000h-93v1000h93z" />
    <glyph glyph-name="braceright" unicode="}" horiz-adv-x="520" 
d="M457 301v-84h-54q-55 0 -83.5 -39.5t-28.5 -112.5v-118q0 -94 -48.5 -145.5t-125.5 -51.5h-71v84h68q44 0 64 32.5t20 102.5v115q2 135 83 175q-83 43 -83 175v97q0 70 -20 102.5t-64 32.5h-68v84h71q79 0 126.5 -51.5t47.5 -145.5v-100q0 -73 28.5 -112.5t83.5 -39.5h54
z" />
    <glyph glyph-name="asciitilde" unicode="~" horiz-adv-x="573" 
d="M42 199q0 182 148 182q34 0 62 -16t43 -34.5t37 -34.5t45 -16q33 0 49 27t16 70h89q0 -182 -147 -182q-28 0 -51 10.5t-38.5 25t-29 29t-31 25t-37.5 10.5q-33 0 -49 -27t-16 -69h-90z" />
    <glyph glyph-name="exclamdown" unicode="&#xa1;" horiz-adv-x="318" 
d="M216 -157h-113v245q0 39 8 117.5t8 116.5h81q0 -38 8 -116.5t8 -117.5v-245zM87 440q0 29 21 50t51 21q29 0 50 -21t21 -50q0 -30 -21 -51t-50 -21q-30 0 -51 21t-21 51z" />
    <glyph glyph-name="cent" unicode="&#xa2;" horiz-adv-x="439" 
d="M24 247v12q0 109 52 171.5t142 76.5v143h93v-142q51 -7 109 -41q-5 -17 -33 -101q-53 36 -117 36q-63 0 -96.5 -33.5t-33.5 -109.5v-12q0 -77 38 -113t102 -36q63 0 116 28q30 -91 33 -100q-54 -31 -118 -35v-141h-93v145q-92 18 -143 85.5t-51 166.5z" />
    <glyph glyph-name="sterling" unicode="&#xa3;" horiz-adv-x="518" 
d="M509 111v-111h-414v269h-86v84h86v71q0 119 53.5 177.5t166.5 58.5q82 0 149 -37l-34 -103q-47 25 -111 28q-62 1 -83 -29t-21 -106v-60h165v-84h-165v-158h294z" />
    <glyph glyph-name="currency" unicode="&#xa4;" horiz-adv-x="687" 
d="M345 172q-37 0 -62 11l-140 -141l-81 83l130 128q-18 33 -18 71q0 36 17 70l-129 130l81 82l139 -140q28 12 63 12q33 0 61 -12l137 139l81 -81l-127 -127q18 -34 18 -73q0 -38 -19 -73l129 -126l-82 -83l-139 140q-26 -10 -59 -10zM345 249q33 0 55 21t22 54
q0 35 -21.5 56t-55.5 21t-55.5 -21t-21.5 -56q0 -33 21.5 -54t55.5 -21z" />
    <glyph glyph-name="yen" unicode="&#xa5;" horiz-adv-x="618" 
d="M546 297v-84h-176v-52h176v-84h-176v-77h-121v77h-178v84h178v52h-178v84h148l-219 353h136l173 -282l173 282h136l-221 -353h149z" />
    <glyph glyph-name="brokenbar" unicode="&#xa6;" horiz-adv-x="223" 
d="M158 750v-403h-93v403h93zM158 174v-424h-93v424h93z" />
    <glyph glyph-name="section" unicode="&#xa7;" horiz-adv-x="541" 
d="M50 -177l35 108q81 -54 166 -54q51 0 85.5 21.5t34.5 60.5q0 37 -32 57.5t-105 42.5q-174 52 -174 194q0 88 60 138q-60 53 -60 135q0 95 63.5 143.5t165.5 48.5q42 0 78 -9t55 -19t48 -29l-35 -108q-77 53 -155 53q-42 0 -70.5 -18.5t-28.5 -55.5q0 -19 9 -35.5
t20 -25.5t32 -18.5t31.5 -13t32.5 -9.5q185 -51 185 -188q0 -91 -62 -143q62 -50 62 -129q0 -103 -72 -153.5t-177 -50.5q-60 0 -102 14.5t-90 42.5zM181 260q0 -75 141 -108q49 24 49 79q0 38 -34 59t-110 44q-46 -20 -46 -74z" />
    <glyph glyph-name="dieresis" unicode="&#xa8;" horiz-adv-x="487" 
d="M50 820q0 29 21 50t50 21t49.5 -21t20.5 -50t-20.5 -49.5t-49.5 -20.5t-50 20.5t-21 49.5zM296 820q0 29 21 50t50 21t49.5 -21t20.5 -50q0 -28 -20.5 -49t-49.5 -21t-50 21t-21 49z" />
    <glyph glyph-name="copyright" unicode="&#xa9;" horiz-adv-x="892" 
d="M250 348v14q0 98 54.5 149t140.5 51q62 0 124 -35q-4 -14 -13 -41.5t-14 -40.5q-44 29 -94 29q-51 0 -77.5 -26.5t-26.5 -90.5v-9q0 -118 115 -118q49 0 90 23l8.5 -25.5l10 -30l8.5 -25.5q-54 -30 -125 -30q-85 0 -143 54.5t-58 151.5zM82 352q0 151 106 257.5
t257 106.5t257.5 -106t106.5 -258q0 -151 -106.5 -257t-257.5 -106t-257 106t-106 257zM150 352q0 -121 87 -208t208 -87q122 0 209 86.5t87 208.5t-87 209t-209 87q-121 0 -208 -87t-87 -209z" />
    <glyph glyph-name="guillemotleft" unicode="&#xab;" horiz-adv-x="558" 
d="M508 40h-108l-161 210l161 210h108l-161 -210zM300 40h-107l-161 210l161 210h107l-161 -210z" />
    <glyph glyph-name="logicalnot" unicode="&#xac;" horiz-adv-x="581" 
d="M531 431v-305h-93v222h-406v83h499z" />
    <glyph glyph-name="registered" unicode="&#xae;" horiz-adv-x="892" 
d="M502 152l-76 151h-48v-151h-93v400h161q78 0 117.5 -32.5t39.5 -87.5q0 -91 -82 -119l86 -161h-105zM446 464h-68v-78h68q34 0 48 9t14 29q0 21 -13.5 30.5t-48.5 9.5zM82 352q0 151 106 257.5t257 106.5t257.5 -106t106.5 -258q0 -151 -106.5 -257t-257.5 -106t-257 106
t-106 257zM150 352q0 -121 87 -208t208 -87q122 0 209 86.5t87 208.5t-87 209t-209 87q-121 0 -208 -87t-87 -209z" />
    <glyph glyph-name="degree" unicode="&#xb0;" horiz-adv-x="428" 
d="M377 587q0 -68 -47 -115t-116 -47q-70 0 -117 46t-47 116q0 69 47.5 116t116.5 47q68 0 115.5 -47.5t47.5 -115.5zM291 587q0 35 -21.5 57.5t-55.5 22.5t-56 -22.5t-22 -57.5q0 -34 22 -56.5t56 -22.5q31 0 54 23t23 56z" />
    <glyph glyph-name="plusminus" unicode="&#xb1;" horiz-adv-x="623" 
d="M584 387v-110h-212v-159h211v-109h-543v109h213v159h-213v110h213v202h119v-202h212z" />
    <glyph glyph-name="acute" unicode="&#xb4;" horiz-adv-x="311" 
d="M139 886h112l-104 -136h-87z" />
    <glyph glyph-name="mu" unicode="&#xb5;" horiz-adv-x="534" 
d="M484 500v-500h-102l-13 58q-35 -68 -111 -68q-64 0 -93 39v-263h-115v734h115v-267q0 -133 102 -133q101 0 101 136v264h116z" />
    <glyph glyph-name="paragraph" unicode="&#xb6;" horiz-adv-x="556" 
d="M505 727v-825h-93v728h-84v-728h-93v381q-92 11 -147.5 72t-55.5 153q0 104 67.5 161.5t192.5 57.5h213z" />
    <glyph glyph-name="periodcentered" unicode="&#xb7;" horiz-adv-x="236" 
d="M46 250q0 30 21 51t51 21q29 0 50 -21t21 -51t-21 -51t-50 -21q-30 0 -51 21t-21 51z" />
    <glyph glyph-name="cedilla" unicode="&#xb8;" horiz-adv-x="262" 
d="M87 25h59l-13 -59q38 3 62 -17t23 -57q-2 -41 -31.5 -65t-67 -25t-74.5 11l1 58q17 -11 56.5 -7.5t39.5 27.5t-29.5 30t-49.5 -2z" />
    <glyph glyph-name="guillemotright" unicode="&#xbb;" horiz-adv-x="555" 
d="M155 40h-107l161 210l-161 210h107l161 -210zM362 40h-107l161 210l-161 210h107l161 -210z" />
    <glyph glyph-name="questiondown" unicode="&#xbf;" horiz-adv-x="490" 
d="M406 440q0 -29 -21 -50t-50 -21q-30 0 -51 21t-21 50q0 30 21 51t51 21q29 0 50 -21t21 -51zM33 35q0 34 11.5 63.5t25.5 48t41 38t41.5 27.5t43.5 22l12 6q67 31 67 75h120q0 -54 -33 -95t-84 -66q-9 -5 -41 -21.5t-44.5 -25t-26 -28t-13.5 -44.5q0 -89 125 -89
q80 0 136 30l36 -107q-79 -34 -172 -34q-109 0 -177 52.5t-68 147.5z" />
    <glyph glyph-name="Agrave" unicode="&#xc0;" horiz-adv-x="597" 
d="M486 0l-53 140h-269l-53 -140h-122l248 650h123l248 -650h-122zM298 498l-93 -247h186zM276 750l-101 136h108l77 -136h-84z" />
    <glyph glyph-name="Aacute" unicode="&#xc1;" horiz-adv-x="597" 
d="M486 0l-53 140h-269l-53 -140h-122l248 650h123l248 -650h-122zM298 498l-93 -247h186zM316 886h113l-105 -136h-87z" />
    <glyph glyph-name="Acircumflex" unicode="&#xc2;" horiz-adv-x="597" 
d="M486 0l-53 140h-269l-53 -140h-122l248 650h123l248 -650h-122zM298 498l-93 -247h186zM158 750l91 136h97l92 -136h-85l-54 85h-2l-54 -85h-85z" />
    <glyph glyph-name="Atilde" unicode="&#xc3;" horiz-adv-x="597" 
d="M486 0l-53 140h-269l-53 -140h-122l248 650h123l248 -650h-122zM298 498l-93 -247h186zM121 753q0 137 110 137q31 0 53.5 -18t40 -36t35.5 -18q22 0 33 19t11 50h72q0 -137 -111 -137q-24 0 -43.5 11t-30.5 25t-25.5 25t-29.5 11q-21 0 -32.5 -19t-11.5 -50h-71z" />
    <glyph glyph-name="Adieresis" unicode="&#xc4;" horiz-adv-x="597" 
d="M486 0l-53 140h-269l-53 -140h-122l248 650h123l248 -650h-122zM298 498l-93 -247h186zM105 820q0 29 20.5 50t49.5 21t50 -21t21 -50t-21 -49.5t-50 -20.5t-49.5 20.5t-20.5 49.5zM351 820q0 29 20.5 50t49.5 21t50 -21t21 -50t-21 -49.5t-50 -20.5t-49.5 21t-20.5 49z
" />
    <glyph glyph-name="Aring" unicode="&#xc5;" horiz-adv-x="597" 
d="M486 0l-53 140h-269l-53 -140h-122l248 650h123l248 -650h-122zM298 498l-93 -247h186zM298 750q-36 0 -61.5 21t-25.5 57q0 37 25.5 58t61.5 21t62 -21t26 -58q0 -36 -26 -57t-62 -21zM298 791q17 0 27.5 10.5t10.5 26.5q0 17 -10.5 27.5t-27.5 10.5q-16 0 -26.5 -10.5
t-10.5 -27.5q0 -16 10.5 -26.5t26.5 -10.5z" />
    <glyph glyph-name="AE" unicode="&#xc6;" horiz-adv-x="888" 
d="M0 0l236 650h637v-112h-351v-140h311v-111h-311v-176h351v-111h-470v180h-215l-66 -180h-122zM317 538l-89 -247h175v247h-86z" />
    <glyph glyph-name="Ccedilla" unicode="&#xc7;" horiz-adv-x="530" 
d="M152 349v-48q0 -201 168 -201q47 0 91.5 17t64.5 37l36 -109q-81 -56 -192 -56q-15 0 -39 2l-5 -25q37 3 61.5 -17.5t22.5 -56.5q-2 -41 -31.5 -65t-67 -25t-74.5 11l1 58q17 -11 56.5 -7.5t39.5 27.5t-29.5 30t-49.5 -2l18 82q-191 50 -191 300v48q0 158 78 234.5
t210 76.5q96 0 192 -56l-36 -109q-75 53 -156 53q-168 0 -168 -199z" />
    <glyph glyph-name="Egrave" unicode="&#xc8;" horiz-adv-x="518" 
d="M170 287v-176h334v-111h-454v650h454v-112h-334v-140h294v-111h-294zM252 750l-101 136h108l77 -136h-84z" />
    <glyph glyph-name="Eacute" unicode="&#xc9;" horiz-adv-x="518" 
d="M170 287v-176h334v-111h-454v650h454v-112h-334v-140h294v-111h-294zM313 886h112l-104 -136h-87z" />
    <glyph glyph-name="Ecircumflex" unicode="&#xca;" horiz-adv-x="518" 
d="M170 287v-176h334v-111h-454v650h454v-112h-334v-140h294v-111h-294zM145 750l91 136h97l92 -136h-85l-54 85h-2l-54 -85h-85z" />
    <glyph glyph-name="Edieresis" unicode="&#xcb;" horiz-adv-x="518" 
d="M170 287v-176h334v-111h-454v650h454v-112h-334v-140h294v-111h-294zM92 820q0 29 20.5 50t49.5 21t50 -21t21 -50t-21 -49.5t-50 -20.5t-49.5 20.5t-20.5 49.5zM338 820q0 29 20.5 50t49.5 21t50 -21t21 -50q0 -28 -21 -49t-50 -21q-28 0 -49 21t-21 49z" />
    <glyph glyph-name="Igrave" unicode="&#xcc;" horiz-adv-x="220" 
d="M50 0v650h120v-650h-120zM71 750l-100 136h108l77 -136h-85z" />
    <glyph glyph-name="Iacute" unicode="&#xcd;" horiz-adv-x="220" 
d="M50 0v650h120v-650h-120zM144 886h112l-105 -136h-86z" />
    <glyph glyph-name="Icircumflex" unicode="&#xce;" horiz-adv-x="220" 
d="M50 0v650h120v-650h-120zM-30 750l91 136h97l92 -136h-86l-53 85h-2l-54 -85h-85z" />
    <glyph glyph-name="Idieresis" unicode="&#xcf;" horiz-adv-x="220" 
d="M50 0v650h120v-650h-120zM-83 820q0 29 20.5 50t49.5 21t50 -21t21 -50t-21 -49.5t-50 -20.5t-49.5 20.5t-20.5 49.5zM163 820q0 29 20.5 50t49.5 21t50 -21t21 -50q0 -28 -21 -49t-50 -21t-49.5 21t-20.5 49z" />
    <glyph glyph-name="Eth" unicode="&#xd0;" horiz-adv-x="604" 
d="M78 0v289h-80v94h80v267h201q292 0 292 -300v-51q0 -299 -292 -299h-201zM452 299v51q0 103 -42.5 145.5t-130.5 42.5h-82v-155h85v-94h-85v-178h82q88 0 130.5 42.5t42.5 145.5z" />
    <glyph glyph-name="Ntilde" unicode="&#xd1;" horiz-adv-x="594" 
d="M50 0v650h115l259 -424v424h120v-650h-114l-260 422v-422h-120zM119 753q0 137 111 137q24 0 43.5 -11t30.5 -25t25.5 -25t29.5 -11q21 0 32.5 19.5t11.5 49.5h71q0 -137 -110 -137q-31 0 -53.5 18t-40 36t-35.5 18q-44 0 -44 -69h-72z" />
    <glyph glyph-name="Ograve" unicode="&#xd2;" horiz-adv-x="599" 
d="M446 301v47q0 107 -38 153.5t-108 46.5q-71 0 -109 -46.5t-38 -153.5v-47q0 -108 38 -154.5t109 -46.5q70 0 108 46.5t38 154.5zM32 301v47q0 160 72.5 236t195.5 76t195 -76t72 -236v-47q0 -160 -72 -236t-195 -76q-124 0 -196 76t-72 236zM260 750l-101 136h109
l76 -136h-84z" />
    <glyph glyph-name="Oacute" unicode="&#xd3;" horiz-adv-x="599" 
d="M446 301v47q0 107 -38 153.5t-108 46.5q-71 0 -109 -46.5t-38 -153.5v-47q0 -108 38 -154.5t109 -46.5q70 0 108 46.5t38 154.5zM32 301v47q0 160 72.5 236t195.5 76t195 -76t72 -236v-47q0 -160 -72 -236t-195 -76q-124 0 -196 76t-72 236zM314 886h112l-104 -136h-87z
" />
    <glyph glyph-name="Ocircumflex" unicode="&#xd4;" horiz-adv-x="599" 
d="M446 301v47q0 107 -38 153.5t-108 46.5q-71 0 -109 -46.5t-38 -153.5v-47q0 -108 38 -154.5t109 -46.5q70 0 108 46.5t38 154.5zM32 301v47q0 160 72.5 236t195.5 76t195 -76t72 -236v-47q0 -160 -72 -236t-195 -76q-124 0 -196 76t-72 236zM160 750l91 136h97l92 -136
h-86l-53 85h-2l-55 -85h-84z" />
    <glyph glyph-name="Otilde" unicode="&#xd5;" horiz-adv-x="599" 
d="M446 301v47q0 107 -38 153.5t-108 46.5q-71 0 -109 -46.5t-38 -153.5v-47q0 -108 38 -154.5t109 -46.5q70 0 108 46.5t38 154.5zM32 301v47q0 160 72.5 236t195.5 76t195 -76t72 -236v-47q0 -160 -72 -236t-195 -76q-124 0 -196 76t-72 236zM122 753q0 137 111 137
q30 0 52.5 -18t40 -36t35.5 -18q22 0 33 19t11 50h72q0 -137 -110 -137q-31 0 -53.5 18t-40 36t-35.5 18q-44 0 -44 -69h-72z" />
    <glyph glyph-name="Odieresis" unicode="&#xd6;" horiz-adv-x="599" 
d="M446 301v47q0 107 -38 153.5t-108 46.5q-71 0 -109 -46.5t-38 -153.5v-47q0 -108 38 -154.5t109 -46.5q70 0 108 46.5t38 154.5zM32 301v47q0 160 72.5 236t195.5 76t195 -76t72 -236v-47q0 -160 -72 -236t-195 -76q-124 0 -196 76t-72 236zM106 820q0 29 21 50t50 21
t49.5 -21t20.5 -50t-20.5 -49.5t-49.5 -20.5t-50 20.5t-21 49.5zM352 820q0 29 21 50t50 21t49.5 -21t20.5 -50q0 -28 -20.5 -49t-49.5 -21t-50 21t-21 49z" />
    <glyph glyph-name="multiply" unicode="&#xd7;" horiz-adv-x="655" 
d="M328 404l199 201l81 -81l-201 -200l202 -199l-82 -83l-199 202l-201 -202l-81 83l201 199l-201 200l81 82z" />
    <glyph glyph-name="Oslash" unicode="&#xd8;" horiz-adv-x="599" 
d="M32 301v47q0 160 72.5 236t195.5 76t195 -76t72 -236v-47q0 -160 -72 -236t-195 -76q-124 0 -196 76t-72 236zM446 301v47q0 108 -44 157l-132 -402q14 -3 30 -3q70 0 108 46.5t38 154.5zM153 301q0 -105 38 -154l128 399q-12 2 -19 2q-71 0 -109 -46.5t-38 -153.5v-47z
" />
    <glyph glyph-name="Ugrave" unicode="&#xd9;" horiz-adv-x="598" 
d="M42 304v346h120v-346q0 -110 35.5 -157t101.5 -47t101.5 47t35.5 157v346h120v-346q0 -162 -69.5 -238.5t-187.5 -76.5t-187.5 76.5t-69.5 238.5zM259 750l-101 136h109l76 -136h-84z" />
    <glyph glyph-name="Uacute" unicode="&#xda;" horiz-adv-x="598" 
d="M42 304v346h120v-346q0 -110 35.5 -157t101.5 -47t101.5 47t35.5 157v346h120v-346q0 -162 -69.5 -238.5t-187.5 -76.5t-187.5 76.5t-69.5 238.5zM333 886h112l-105 -136h-86z" />
    <glyph glyph-name="Ucircumflex" unicode="&#xdb;" horiz-adv-x="598" 
d="M42 304v346h120v-346q0 -110 35.5 -157t101.5 -47t101.5 47t35.5 157v346h120v-346q0 -162 -69.5 -238.5t-187.5 -76.5t-187.5 76.5t-69.5 238.5zM159 750l91 136h97l92 -136h-86l-53 85h-2l-55 -85h-84z" />
    <glyph glyph-name="Udieresis" unicode="&#xdc;" horiz-adv-x="598" 
d="M42 304v346h120v-346q0 -110 35.5 -157t101.5 -47t101.5 47t35.5 157v346h120v-346q0 -162 -69.5 -238.5t-187.5 -76.5t-187.5 76.5t-69.5 238.5zM105 820q0 29 21 50t50 21t49.5 -21t20.5 -50t-20.5 -49.5t-49.5 -20.5t-50 20.5t-21 49.5zM351 820q0 29 21 50t50 21
t49.5 -21t20.5 -50q0 -28 -21 -49t-49 -21q-29 0 -50 21t-21 49z" />
    <glyph glyph-name="Yacute" unicode="&#xdd;" horiz-adv-x="618" 
d="M618 650l-248 -398v-252h-121v250l-249 400h136l173 -290l173 290h136zM343 886h112l-104 -136h-87z" />
    <glyph glyph-name="Thorn" unicode="&#xde;" horiz-adv-x="574" 
d="M50 0v700h120v-100h127q127 0 187 -54.5t60 -150.5t-60 -149.5t-187 -53.5h-127v-192h-120zM297 488h-127v-185h127q69 0 98 23t29 69q0 47 -29 70t-98 23z" />
    <glyph glyph-name="germandbls" unicode="&#xdf;" horiz-adv-x="542" 
d="M510 167q0 -88 -60 -133t-163 -45q-43 0 -74 12v117q32 -18 78 -18q99 0 99 53q0 23 -26 39.5t-57.5 27t-57.5 39t-26 73.5q0 33 19.5 59t43 39t43 30.5t19.5 35.5q0 26 -20.5 39.5t-54.5 13.5q-54 0 -78.5 -32.5t-24.5 -107.5v-409h-120v405q0 130 59 192.5t167 62.5
q88 0 140 -44.5t52 -120.5q0 -38 -19.5 -67t-43.5 -42t-43.5 -27.5t-19.5 -27.5q0 -10 17.5 -20t42 -21t49 -25.5t42 -40t17.5 -57.5z" />
    <glyph glyph-name="agrave" unicode="&#xe0;" horiz-adv-x="487" 
d="M453 324v-309q-87 -26 -219 -26q-89 0 -152 44t-63 126v7q0 71 62.5 110t176.5 42q27 1 79 3v20q0 61 -109 61q-79 0 -151 -31q-6 17 -17 52t-17 52q96 36 194 36q99 0 157.5 -44.5t58.5 -142.5zM337 106v124q-108 -1 -155 -13t-47 -51v-7q0 -31 28 -46t74 -15
q55 0 100 8zM213 560q-17 22 -50 68t-50 68h108q39 -71 77 -136h-85z" />
    <glyph glyph-name="aacute" unicode="&#xe1;" horiz-adv-x="487" 
d="M453 324v-309q-87 -26 -219 -26q-89 0 -152 44t-63 126v7q0 71 62.5 110t176.5 42q27 1 79 3v20q0 61 -109 61q-79 0 -151 -31q-6 17 -17 52t-17 52q96 36 194 36q99 0 157.5 -44.5t58.5 -142.5zM337 106v124q-108 -1 -155 -13t-47 -51v-7q0 -31 28 -46t74 -15
q55 0 100 8zM262 696h112q-18 -22 -53 -68t-52 -68h-86q13 23 39.5 68.5t39.5 67.5z" />
    <glyph glyph-name="acircumflex" unicode="&#xe2;" horiz-adv-x="487" 
d="M453 324v-309q-87 -26 -219 -26q-89 0 -152 44t-63 126v7q0 71 62.5 110t176.5 42q27 1 79 3v20q0 61 -109 61q-79 0 -151 -31q-6 17 -17 52t-17 52q96 36 194 36q99 0 157.5 -44.5t58.5 -142.5zM337 106v124q-108 -1 -155 -13t-47 -51v-7q0 -31 28 -46t74 -15
q55 0 100 8zM113 560q15 22 45.5 67.5t45.5 68.5h97q16 -22 46.5 -67.5t45.5 -68.5h-86q-9 14 -26.5 42.5t-26.5 42.5h-2l-54 -85h-85z" />
    <glyph glyph-name="atilde" unicode="&#xe3;" horiz-adv-x="487" 
d="M453 324v-309q-87 -26 -219 -26q-89 0 -152 44t-63 126v7q0 71 62.5 110t176.5 42q27 1 79 3v20q0 61 -109 61q-79 0 -151 -31q-6 17 -17 52t-17 52q96 36 194 36q99 0 157.5 -44.5t58.5 -142.5zM337 106v124q-108 -1 -155 -13t-47 -51v-7q0 -31 28 -46t74 -15
q55 0 100 8zM75 563q0 137 110 137q24 0 43.5 -11t30.5 -25t25.5 -25t29.5 -11q21 0 32.5 19.5t11.5 49.5h71q0 -137 -110 -137q-24 0 -43.5 11t-30.5 25t-25.5 25t-29.5 11q-44 0 -44 -69h-71z" />
    <glyph glyph-name="adieresis" unicode="&#xe4;" horiz-adv-x="487" 
d="M453 324v-309q-87 -26 -219 -26q-89 0 -152 44t-63 126v7q0 71 62.5 110t176.5 42q27 1 79 3v20q0 61 -109 61q-79 0 -151 -31q-6 17 -17 52t-17 52q96 36 194 36q99 0 157.5 -44.5t58.5 -142.5zM337 106v124q-108 -1 -155 -13t-47 -51v-7q0 -31 28 -46t74 -15
q55 0 100 8zM58 630q0 29 20.5 50t49.5 21t50 -21t21 -50t-21 -49.5t-50 -20.5t-49.5 20.5t-20.5 49.5zM304 630q0 29 20.5 50t49.5 21t50 -21t21 -50q0 -28 -21 -49t-50 -21q-28 0 -49 21t-21 49z" />
    <glyph glyph-name="aring" unicode="&#xe5;" horiz-adv-x="487" 
d="M453 324v-309q-87 -26 -219 -26q-89 0 -152 44t-63 126v7q0 71 62.5 110t176.5 42q27 1 79 3v20q0 61 -109 61q-79 0 -151 -31q-6 17 -17 52t-17 52q96 36 194 36q99 0 157.5 -44.5t58.5 -142.5zM337 106v124q-108 -1 -155 -13t-47 -51v-7q0 -31 28 -46t74 -15
q55 0 100 8zM251 560q-36 0 -62 21t-26 57q0 37 26 58t62 21t62 -21t26 -58q0 -36 -26 -57t-62 -21zM251 601q16 0 27 10.5t11 26.5t-10.5 27t-27.5 11q-16 0 -26.5 -10.5t-10.5 -27.5q0 -16 10.5 -26.5t26.5 -10.5z" />
    <glyph glyph-name="ae" unicode="&#xe6;" horiz-adv-x="807" 
d="M775 256v-52h-319v-6q1 -45 35 -72.5t89 -27.5q87 0 151 27q6 -17 17.5 -51t17.5 -51q-85 -34 -186 -34q-59 0 -105 21.5t-71 59.5q-53 -81 -193 -81q-87 0 -139.5 40.5t-52.5 121.5v15q0 69 63 108.5t170 42.5q14 1 42.5 2t42.5 1v22q0 60 -109 60q-81 0 -151 -30
q-6 18 -17.5 53t-16.5 51q98 35 194 35q113 0 167 -55q54 55 152 55q103 0 161 -62.5t58 -192.5zM337 181v48q-52 0 -81 -2t-61 -8t-46 -19t-14 -35v-14q0 -66 102 -66q44 0 72 23t28 73zM456 298v-7h200v1v4q0 52 -27.5 79t-72.5 27q-44 0 -71.5 -27t-28.5 -77z" />
    <glyph glyph-name="ccedilla" unicode="&#xe7;" horiz-adv-x="439" 
d="M24 247v12q0 125 67 188.5t179 63.5q78 0 150 -44q-5 -17 -33 -101q-53 36 -117 36q-63 0 -96.5 -33.5t-33.5 -109.5v-12q0 -77 38 -113t102 -36q63 0 116 28q30 -91 33 -100q-65 -37 -149 -37q-12 0 -34 2q-1 -10 -5 -25q37 3 61.5 -17t23.5 -57q-2 -41 -32 -65
t-67.5 -25t-73.5 11q0 9 0.5 29t0.5 29q17 -11 56.5 -7.5t39.5 27.5t-29.5 30t-50.5 -2q3 14 9.5 41.5t9.5 41.5q-79 24 -122 89.5t-43 155.5z" />
    <glyph glyph-name="egrave" unicode="&#xe8;" horiz-adv-x="501" 
d="M470 258v-51h-336v-5q0 -48 35.5 -76t97.5 -28q93 0 160 23l34 -104q-87 -28 -194 -28q-121 0 -186.5 62t-65.5 191v16q0 129 60 191t168 62t167.5 -62t59.5 -191zM134 298v-5h217v5q0 50 -29 77t-79 27q-51 0 -80 -27t-29 -77zM212 560l-101 136h108l77 -136h-84z" />
    <glyph glyph-name="eacute" unicode="&#xe9;" horiz-adv-x="501" 
d="M470 258v-51h-336v-5q0 -48 35.5 -76t97.5 -28q93 0 160 23l34 -104q-87 -28 -194 -28q-121 0 -186.5 62t-65.5 191v16q0 129 60 191t168 62t167.5 -62t59.5 -191zM134 298v-5h217v5q0 50 -29 77t-79 27q-51 0 -80 -27t-29 -77zM285 696h112l-104 -136h-87z" />
    <glyph glyph-name="ecircumflex" unicode="&#xea;" horiz-adv-x="501" 
d="M470 258v-51h-336v-5q0 -48 35.5 -76t97.5 -28q93 0 160 23l34 -104q-87 -28 -194 -28q-121 0 -186.5 62t-65.5 191v16q0 129 60 191t168 62t167.5 -62t59.5 -191zM134 298v-5h217v5q0 50 -29 77t-79 27q-51 0 -80 -27t-29 -77zM111 560l91 136h97l92 -136h-86l-53 85h-2
l-54 -85h-85z" />
    <glyph glyph-name="edieresis" unicode="&#xeb;" horiz-adv-x="501" 
d="M470 258v-51h-336v-5q0 -48 35.5 -76t97.5 -28q93 0 160 23l34 -104q-87 -28 -194 -28q-121 0 -186.5 62t-65.5 191v16q0 129 60 191t168 62t167.5 -62t59.5 -191zM134 298v-5h217v5q0 50 -29 77t-79 27q-51 0 -80 -27t-29 -77zM58 630q0 29 20.5 50t49.5 21t50 -21
t21 -50t-21 -49.5t-50 -20.5t-49.5 20.5t-20.5 49.5zM304 630q0 29 20.5 50t49.5 21t50 -21t21 -50q0 -28 -21 -49t-50 -21q-28 0 -49 21t-21 49z" />
    <glyph glyph-name="igrave" unicode="&#xec;" horiz-adv-x="248" 
d="M85 560l-101 136h109l76 -136h-84zM66 0v500h116v-500h-116z" />
    <glyph glyph-name="iacute" unicode="&#xed;" horiz-adv-x="248" 
d="M158 696h112l-105 -136h-86zM66 0v500h116v-500h-116z" />
    <glyph glyph-name="icircumflex" unicode="&#xee;" horiz-adv-x="248" 
d="M-16 560l91 136h97l92 -136h-86l-53 85h-2l-54 -85h-85zM66 0v500h116v-500h-116z" />
    <glyph glyph-name="idieresis" unicode="&#xef;" horiz-adv-x="248" 
d="M-70 630q0 29 21 50t50 21t49.5 -21t20.5 -50t-20.5 -49.5t-49.5 -20.5t-50 20.5t-21 49.5zM176 630q0 29 21 50t50 21t49.5 -21t20.5 -50q0 -28 -20.5 -49t-49.5 -21t-50 21t-21 49zM66 0v500h116v-500h-116z" />
    <glyph glyph-name="eth" unicode="&#xf0;" horiz-adv-x="529" 
d="M141 504l88 88q-58 27 -138 33l31 102q102 -8 189 -54l63 64l53 -53l-53 -54q60 -51 91.5 -123t31.5 -194q0 -72 -11.5 -127t-39 -101.5t-79.5 -71t-126 -24.5q-92 0 -151 53.5t-59 159.5q0 103 60.5 153t157.5 50q71 0 124 -22q-9 109 -79 168l-100 -100zM253 302
q-103 0 -103 -100q0 -52 27.5 -77t66.5 -25q75 0 102 43.5t27 132.5q-51 26 -120 26z" />
    <glyph glyph-name="ntilde" unicode="&#xf1;" 
d="M50 0v485q87 26 216 26q99 0 158.5 -54.5t59.5 -164.5v-292h-115v301q0 55 -28.5 78t-82.5 23q-51 0 -92 -7v-395h-116zM83 563q0 137 110 137q24 0 43.5 -11t30.5 -25t25.5 -25t29.5 -11q21 0 32.5 19.5t11.5 49.5h71q0 -137 -110 -137q-31 0 -53.5 18t-40 36t-35.5 18
q-44 0 -44 -69h-71z" />
    <glyph glyph-name="ograve" unicode="&#xf2;" horiz-adv-x="529" 
d="M380 245v10q0 81 -28.5 114t-86.5 33t-87 -33t-29 -114v-10q0 -81 29 -114t87 -33t86.5 33t28.5 114zM32 245v10q0 130 63 193t170 63q106 0 169 -63t63 -193v-10q0 -130 -63 -193t-169 -63q-107 0 -170 63t-63 193zM229 560q-17 22 -50.5 68t-50.5 68h108
q12 -23 38.5 -68t38.5 -68h-84z" />
    <glyph glyph-name="oacute" unicode="&#xf3;" horiz-adv-x="529" 
d="M380 245v10q0 81 -28.5 114t-86.5 33t-87 -33t-29 -114v-10q0 -81 29 -114t87 -33t86.5 33t28.5 114zM32 245v10q0 130 63 193t170 63q106 0 169 -63t63 -193v-10q0 -130 -63 -193t-169 -63q-107 0 -170 63t-63 193zM299 696h112q-44 -56 -104 -136h-87q13 23 39.5 68.5
t39.5 67.5z" />
    <glyph glyph-name="ocircumflex" unicode="&#xf4;" horiz-adv-x="529" 
d="M380 245v10q0 81 -28.5 114t-86.5 33t-87 -33t-29 -114v-10q0 -81 29 -114t87 -33t86.5 33t28.5 114zM32 245v10q0 130 63 193t170 63q106 0 169 -63t63 -193v-10q0 -130 -63 -193t-169 -63q-107 0 -170 63t-63 193zM125 560q15 22 45.5 67.5t45.5 68.5h97
q15 -22 45.5 -67.5t46.5 -68.5h-86q-9 14 -26.5 42.5t-26.5 42.5h-2l-55 -85h-84z" />
    <glyph glyph-name="otilde" unicode="&#xf5;" horiz-adv-x="529" 
d="M380 245v10q0 81 -28.5 114t-86.5 33t-87 -33t-29 -114v-10q0 -81 29 -114t87 -33t86.5 33t28.5 114zM32 245v10q0 130 63 193t170 63q106 0 169 -63t63 -193v-10q0 -130 -63 -193t-169 -63q-107 0 -170 63t-63 193zM87 563q0 137 111 137q24 0 43.5 -11t30.5 -25
t25.5 -25t29.5 -11q21 0 32.5 19.5t11.5 49.5h71q0 -137 -110 -137q-24 0 -44 11.5t-31 25t-25 25t-29 11.5q-44 0 -44 -70h-72z" />
    <glyph glyph-name="odieresis" unicode="&#xf6;" horiz-adv-x="529" 
d="M380 245v10q0 81 -28.5 114t-86.5 33t-87 -33t-29 -114v-10q0 -81 29 -114t87 -33t86.5 33t28.5 114zM32 245v10q0 130 63 193t170 63q106 0 169 -63t63 -193v-10q0 -130 -63 -193t-169 -63q-107 0 -170 63t-63 193zM71 630q0 29 21 50t50 21t49.5 -21t20.5 -50
t-20.5 -49.5t-49.5 -20.5t-50 20.5t-21 49.5zM317 630q0 29 21 50t50 21t49.5 -21t20.5 -50q0 -28 -21 -49t-49 -21q-29 0 -50 21t-21 49z" />
    <glyph glyph-name="divide" unicode="&#xf7;" horiz-adv-x="629" 
d="M243 131q0 29 21 50t50 21q30 0 51 -21t21 -50t-21 -50.5t-51 -21.5q-29 0 -50 21t-21 51zM243 501q0 30 21 51t50 21q30 0 51 -21.5t21 -50.5t-21 -50t-51 -21q-29 0 -50 21t-21 50zM586 371v-110h-544v110h544z" />
    <glyph glyph-name="oslash" unicode="&#xf8;" horiz-adv-x="526" 
d="M32 245v10q0 130 63 193t168 63q106 0 168.5 -63t62.5 -193v-10q0 -130 -62.5 -193t-168.5 -63q-105 0 -168 63t-63 193zM377 245v10q0 81 -30 114q-19 -45 -56.5 -134.5t-56.5 -134.5q4 0 12 -1t12 -1q9 0 29 2q45 5 67.5 38.5t22.5 106.5zM149 245q0 -81 28 -113
q19 45 56 134.5t55 133.5q-18 2 -25 2q-58 0 -86 -33t-28 -114v-10z" />
    <glyph glyph-name="ugrave" unicode="&#xf9;" 
d="M475 500v-485q-101 -26 -216 -26q-99 0 -158.5 55t-59.5 164v292h115v-301q0 -55 28.5 -78t83.5 -23q57 0 91 7v395h116zM218 560l-101 136h109l76 -136h-84z" />
    <glyph glyph-name="uacute" unicode="&#xfa;" 
d="M475 500v-485q-101 -26 -216 -26q-99 0 -158.5 55t-59.5 164v292h115v-301q0 -55 28.5 -78t83.5 -23q57 0 91 7v395h116zM292 696h112l-104 -136h-87z" />
    <glyph glyph-name="ucircumflex" unicode="&#xfb;" 
d="M475 500v-485q-101 -26 -216 -26q-99 0 -158.5 55t-59.5 164v292h115v-301q0 -55 28.5 -78t83.5 -23q57 0 91 7v395h116zM119 560l91 136h97l92 -136h-85l-54 85h-2l-54 -85h-85z" />
    <glyph glyph-name="udieresis" unicode="&#xfc;" 
d="M475 500v-485q-101 -26 -216 -26q-99 0 -158.5 55t-59.5 164v292h115v-301q0 -55 28.5 -78t83.5 -23q57 0 91 7v395h116zM64 630q0 29 21 50t50 21t49.5 -21t20.5 -50t-20.5 -49.5t-49.5 -20.5t-50 20.5t-21 49.5zM310 630q0 29 21 50t50 21t49.5 -21t20.5 -50
q0 -28 -20.5 -49t-49.5 -21t-50 21t-21 49z" />
    <glyph glyph-name="yacute" unicode="&#xfd;" 
d="M475 500v-532q0 -107 -62 -162.5t-164 -55.5q-110 0 -197 46l34 103q66 -39 163 -39q110 0 110 108v31q-39 -10 -100 -10q-96 0 -157 53.5t-61 165.5v292h115v-301q0 -55 28.5 -78t83.5 -23q46 0 91 8v394h116zM292 696h112l-104 -136h-87z" />
    <glyph glyph-name="thorn" unicode="&#xfe;" horiz-adv-x="517" 
d="M50 -250v950h116v-256q37 67 127 67q83 0 137.5 -65t54.5 -191v-15q0 -123 -54.5 -187t-137.5 -64q-87 0 -128 66v-305h-115zM368 240v15q0 83 -25 115t-75 32q-98 0 -102 -136v-26q0 -79 26 -113t76 -34t75 32t25 115z" />
    <glyph glyph-name="ydieresis" unicode="&#xff;" 
d="M475 500v-532q0 -107 -62 -162.5t-164 -55.5q-110 0 -197 46l34 103q66 -39 163 -39q110 0 110 108v31q-39 -10 -100 -10q-96 0 -157 53.5t-61 165.5v292h115v-301q0 -55 28.5 -78t83.5 -23q46 0 91 8v394h116zM65 630q0 29 21 50t50 21t49.5 -21t20.5 -50t-20.5 -49.5
t-49.5 -20.5t-50 20.5t-21 49.5zM311 630q0 29 21 50t50 21t49.5 -21t20.5 -50q0 -28 -21 -49t-49 -21q-29 0 -50 21t-21 49z" />
    <glyph glyph-name="Aogonek" unicode="&#x104;" horiz-adv-x="597" 
d="M608 0h-60q-23 -60 17.5 -95t103.5 1v-81q-49 -26 -94.5 -20.5t-71.5 35t-35.5 75t12.5 100.5l-47 125h-269l-53 -140h-122l248 650h123zM298 498l-93 -247h186z" />
    <glyph glyph-name="aogonek" unicode="&#x105;" horiz-adv-x="487" 
d="M453 324v-309q-35 -11 -81 -16q-14 -37 0 -69t46 -39t76 15v-81q-66 -30 -116 -16t-74 65.5t-7 116.5q-20 -2 -63 -2q-89 0 -152 44t-63 126v7q0 71 62.5 110t176.5 42q27 1 79 3v20q0 61 -109 61q-79 0 -151 -31q-6 17 -17 52t-17 52q96 36 194 36q99 0 157.5 -44.5
t58.5 -142.5zM337 106v124q-108 -1 -155 -13t-47 -51v-7q0 -31 28 -46t74 -15q55 0 100 8z" />
    <glyph glyph-name="Cacute" unicode="&#x106;" horiz-adv-x="530" 
d="M152 349v-48q0 -201 168 -201q47 0 91.5 17t64.5 37l36 -109q-81 -56 -192 -56q-133 0 -210.5 76.5t-77.5 235.5v48q0 158 78 234.5t210 76.5q96 0 192 -56l-36 -109q-75 53 -156 53q-168 0 -168 -199zM342 886h112l-104 -136h-87z" />
    <glyph glyph-name="cacute" unicode="&#x107;" horiz-adv-x="439" 
d="M24 247v12q0 125 67 188.5t179 63.5q78 0 150 -44q-5 -17 -33 -101q-53 36 -117 36q-63 0 -96.5 -33.5t-33.5 -109.5v-12q0 -77 38 -113t102 -36q63 0 116 28q30 -91 33 -100q-65 -37 -149 -37q-120 0 -188 71.5t-68 186.5zM298 696h113q-17 -22 -52 -68t-53 -68h-87
q13 23 39.5 68.5t39.5 67.5z" />
    <glyph glyph-name="Eogonek" unicode="&#x118;" horiz-adv-x="518" 
d="M170 287v-176h334v-111h-121q-23 -60 17.5 -95t103.5 1v-81q-38 -20 -74.5 -21t-62.5 14t-44.5 41.5t-21.5 63t8 77.5h-259v650h454v-112h-334v-140h294v-111h-294z" />
    <glyph glyph-name="eogonek" unicode="&#x119;" horiz-adv-x="501" 
d="M470 258v-51h-336v-5q0 -48 35.5 -76t97.5 -28q93 0 160 23q28 -86 34 -104q-41 -14 -97 -22q-19 -58 21 -91t102 2v-81q-94 -49 -158.5 7t-39.5 158q-7 -1 -22 -1q-121 0 -186.5 62t-65.5 191v16q0 129 60 191t168 62t167.5 -62t59.5 -191zM134 298v-5h217v2v3
q0 50 -29 77t-79 27q-51 0 -80 -27t-29 -77z" />
    <glyph glyph-name="dotlessi" unicode="&#x131;" horiz-adv-x="221" 
d="M52 0v500h116v-500h-116z" />
    <glyph glyph-name="Lslash" unicode="&#x141;" horiz-adv-x="472" 
d="M-38 274l-30 79l125 45v252h120v-209l132 48l30 -79l-162 -59v-240h294v-111h-414v308z" />
    <glyph glyph-name="lslash" unicode="&#x142;" horiz-adv-x="271" 
d="M-25 282l-29 79l108 40v299h116v-257l82 29l29 -79l-111 -40v-180q0 -73 38 -73q14 0 30 7l34 -103q-43 -13 -81 -13q-137 0 -137 183v137z" />
    <glyph glyph-name="Nacute" unicode="&#x143;" horiz-adv-x="594" 
d="M50 0v650h115l259 -424v424h120v-650h-114l-260 422v-422h-120zM323 886h113l-105 -136h-87z" />
    <glyph glyph-name="nacute" unicode="&#x144;" 
d="M50 0v485q87 26 216 26q99 0 158.5 -54.5t59.5 -164.5v-292h-115v301q0 55 -28.5 78t-82.5 23q-51 0 -92 -7v-395h-116zM284 696h112l-104 -136h-87z" />
    <glyph glyph-name="OE" unicode="&#x152;" horiz-adv-x="914" 
d="M32 301v47q0 160 72.5 236t195.5 76q86 0 146 -42v32h454v-112h-334v-140h294v-111h-294v-176h334v-111h-454v30q-59 -41 -146 -41q-124 0 -196 76t-72 236zM446 301v57q-4 190 -146 190q-71 0 -109 -46.5t-38 -153.5v-47q0 -108 38 -154.5t109 -46.5q70 0 108 46.5
t38 154.5z" />
    <glyph glyph-name="oe" unicode="&#x153;" horiz-adv-x="823" 
d="M791 256v-52h-319v-6q0 -45 34 -72.5t90 -27.5q91 0 159 39q4 -11 16 -46.5t18 -54.5q-81 -47 -193 -47q-123 0 -183 69q-55 -69 -162 -69q-99 0 -159 63t-60 193v10q0 130 60 193t159 63q104 0 159 -67q57 67 162 67q102 0 160.5 -62.5t58.5 -192.5zM353 240v24
q-1 75 -27 106.5t-75 31.5q-51 0 -76.5 -33.5t-25.5 -113.5v-10q0 -80 25.5 -113.5t76.5 -33.5q50 0 76 32t26 110zM472 297v-6h200v1v4q0 51 -27.5 78.5t-72.5 27.5t-72.5 -27t-27.5 -78z" />
    <glyph glyph-name="Sacute" unicode="&#x15a;" horiz-adv-x="489" 
d="M261 886h112l-104 -136h-87zM24 46l34 108q52 -37 119.5 -49.5t117 7.5t49.5 68q0 25 -17 42.5t-44.5 28.5t-60.5 21t-66 24t-60.5 34t-44.5 56t-17 84q0 75 45.5 122.5t110 60t134.5 0t119 -49.5l-34 -108q-47 37 -108 49t-104 -6.5t-43 -61.5q0 -37 32 -59.5t77.5 -36
t91.5 -31t78 -57.5t32 -102q0 -81 -49 -131.5t-119 -63t-145 0.5t-128 50z" />
    <glyph glyph-name="sacute" unicode="&#x15b;" horiz-adv-x="454" 
d="M248 696h113l-105 -136h-87zM32 26l34 104q32 -20 89.5 -28t103.5 1.5t46 35.5q0 21 -19.5 34t-48.5 18t-62.5 15.5t-62.5 24.5t-48.5 46t-19.5 79q0 61 41.5 100t100 49t121 0.5t105.5 -38.5l-34 -105q-33 25 -85.5 35t-92 -0.5t-39.5 -38.5q0 -23 27 -36t65.5 -21
t76.5 -20.5t65 -45t27 -85.5q0 -67 -47.5 -107.5t-112.5 -48.5t-129 0.5t-101 31.5z" />
    <glyph glyph-name="Scaron" unicode="&#x160;" horiz-adv-x="489" 
d="M195 750l-91 136h85l54 -86h2l53 86h87l-93 -136h-97zM24 46l34 108q52 -37 119.5 -49.5t117 7.5t49.5 68q0 25 -17 42.5t-44.5 28.5t-60.5 21t-66 24t-60.5 34t-44.5 56t-17 84q0 75 45.5 122.5t110 60t134.5 0t119 -49.5l-34 -108q-47 37 -108 49t-104 -6.5t-43 -61.5
q0 -37 32 -59.5t77.5 -36t91.5 -31t78 -57.5t32 -102q0 -81 -49 -131.5t-119 -63t-145 0.5t-128 50z" />
    <glyph glyph-name="scaron" unicode="&#x161;" horiz-adv-x="454" 
d="M174 560l-92 136h85l54 -86h2l53 86h87l-93 -136h-96zM32 26l34 104q32 -20 89.5 -28t103.5 1.5t46 35.5q0 21 -19.5 34t-48.5 18t-62.5 15.5t-62.5 24.5t-48.5 46t-19.5 79q0 61 41.5 100t100 49t121 0.5t105.5 -38.5l-34 -105q-33 25 -85.5 35t-92 -0.5t-39.5 -38.5
q0 -23 27 -36t65.5 -21t76.5 -20.5t65 -45t27 -85.5q0 -67 -47.5 -107.5t-112.5 -48.5t-129 0.5t-101 31.5z" />
    <glyph glyph-name="Ydieresis" unicode="&#x178;" horiz-adv-x="618" 
d="M618 650l-248 -398v-252h-121v250l-249 400h136l173 -290l173 290h136zM115 820q0 29 21 50t50 21t49.5 -21t20.5 -50t-20.5 -49.5t-49.5 -20.5t-50 20.5t-21 49.5zM361 820q0 29 21 50t50 21t49.5 -21t20.5 -50q0 -28 -21 -49t-49 -21q-29 0 -50 21t-21 49z" />
    <glyph glyph-name="Zacute" unicode="&#x179;" 
d="M25 538v112h475v-95l-337 -444h357v-111h-515v94l337 444h-317zM251 886h113l-105 -136h-87z" />
    <glyph glyph-name="zacute" unicode="&#x17a;" horiz-adv-x="488" 
d="M27 390v110h434v-110l-273 -281h273v-109h-434v109l273 281h-273zM242 696h112l-105 -136h-86z" />
    <glyph glyph-name="Zdotaccent" unicode="&#x17b;" 
d="M25 538v112h475v-95l-337 -444h357v-111h-515v94l337 444h-317zM191 822q0 29 21 50t51 21q29 0 50 -21t21 -50q0 -30 -21 -51t-50 -21q-30 0 -51 21t-21 51z" />
    <glyph glyph-name="zdotaccent" unicode="&#x17c;" horiz-adv-x="488" 
d="M27 390v110h434v-110l-273 -281h273v-109h-434v109l273 281h-273zM172 632q0 29 21 50t50 21q30 0 51 -21t21 -50q0 -30 -21 -51t-51 -21q-29 0 -50 21t-21 51z" />
    <glyph glyph-name="Zcaron" unicode="&#x17d;" 
d="M25 538v112h475v-95l-337 -444h357v-111h-515v94l337 444h-317zM214 750l-92 136h85l54 -86h2l53 86h87l-93 -136h-96z" />
    <glyph glyph-name="zcaron" unicode="&#x17e;" horiz-adv-x="488" 
d="M27 390v110h434v-110l-273 -281h273v-109h-434v109l273 281h-273zM195 560l-92 136h86l53 -86h2l54 86h86l-93 -136h-96z" />
    <glyph glyph-name="florin" unicode="&#x192;" horiz-adv-x="545" 
d="M548 669v-106q-46 6 -63 6q-52 0 -74.5 -11.5t-37.5 -51t-27 -132.5h152v-108h-170q-4 -25 -10 -71q-7 -52 -11 -77t-11 -67t-13.5 -61.5t-17 -50.5t-22 -45t-28.5 -32.5t-37.5 -26t-46.5 -13.5t-58 -6q-31 0 -81 11v106q39 -9 72 -9q64 0 84.5 43.5t45.5 206.5
q9 58 15 92h-112v108h128q7 48 11.5 73.5t13 63t18 57t25.5 43.5t36 36t49 20.5t65 9.5h13h14h11q33 -2 67 -8z" />
    <glyph glyph-name="circumflex" unicode="&#x2c6;" horiz-adv-x="440" 
d="M80 750l91 136h97l92 -136h-85l-54 85h-2l-54 -85h-85z" />
    <glyph glyph-name="caron" unicode="&#x2c7;" horiz-adv-x="464" 
d="M183 750l-92 136h86l53 -86h2l54 86h86l-93 -136h-96z" />
    <glyph glyph-name="breve" unicode="&#x2d8;" horiz-adv-x="476" 
d="M238 750q-56 0 -97.5 34.5t-41.5 92.5v13h73v-13q0 -32 19.5 -48t46.5 -16t46.5 16.5t19.5 48.5v12h73v-13q0 -58 -41.5 -92.5t-97.5 -34.5z" />
    <glyph glyph-name="dotaccent" unicode="&#x2d9;" horiz-adv-x="238" 
d="M48 822q0 29 21 50t50 21q30 0 51 -21t21 -50q0 -30 -21 -51t-51 -21q-29 0 -50 21t-21 51z" />
    <glyph glyph-name="ring" unicode="&#x2da;" horiz-adv-x="350" 
d="M175 750q-36 0 -62 21t-26 57q0 37 26 58t62 21t62 -21t26 -58q0 -36 -26 -57t-62 -21zM175 791q16 0 26.5 10.5t10.5 26.5q0 17 -10.5 27.5t-26.5 10.5q-17 0 -27.5 -11t-10.5 -27t11 -26.5t27 -10.5z" />
    <glyph glyph-name="ogonek" unicode="&#x2db;" horiz-adv-x="354" 
d="M104 19h77q-18 -30 -17 -60.5t18.5 -48t45.5 -22t64 17.5v-81q-50 -26 -95.5 -20.5t-71.5 36t-35.5 76.5t14.5 102z" />
    <glyph glyph-name="tilde" unicode="&#x2dc;" horiz-adv-x="512" 
d="M79 753q0 137 110 137q31 0 53.5 -18t40 -36t35.5 -18q22 0 33 19t11 50h71q0 -137 -110 -137q-24 0 -43.5 11t-30.5 25t-25.5 25t-29.5 11q-21 0 -32.5 -19t-11.5 -50h-71z" />
    <glyph glyph-name="hungarumlaut" unicode="&#x2dd;" horiz-adv-x="497" 
d="M223 750l77 136h107l-100 -136h-84zM90 750l72 136h107l-95 -136h-84z" />
    <glyph glyph-name="endash" unicode="&#x2013;" horiz-adv-x="597" 
d="M42 265v109h513v-109h-513z" />
    <glyph glyph-name="emdash" unicode="&#x2014;" horiz-adv-x="792" 
d="M42 241v88h708v-88h-708z" />
    <glyph glyph-name="quoteleft" unicode="&#x2018;" horiz-adv-x="247" 
d="M197 542q0 -30 -21 -51t-50 -21q-38 0 -57 29.5t-19 73.5q1 29 9 61.5t34.5 72t67.5 60.5q6 -6 17.5 -17t17.5 -16q-58 -54 -62 -121q27 -3 45 -23t18 -48z" />
    <glyph glyph-name="quoteright" unicode="&#x2019;" horiz-adv-x="247" 
d="M50 696q0 29 21 50t50 21q38 0 57 -29.5t18 -72.5q0 -49 -25.5 -106.5t-84.5 -88.5l-35 34q57 53 62 121q-27 3 -45 23t-18 48z" />
    <glyph glyph-name="quotesinglbase" unicode="&#x201a;" horiz-adv-x="232" 
d="M34 60q0 29 21 50t51 21q38 0 57 -29.5t18 -72.5q0 -49 -25.5 -106t-84.5 -88l-35 33q57 53 62 121q-28 3 -46 23t-18 48z" />
    <glyph glyph-name="quotedblleft" unicode="&#x201c;" horiz-adv-x="444" 
d="M394 542q0 -30 -21 -51t-51 -21q-38 0 -56.5 29.5t-18.5 73.5q1 29 9 61.5t34.5 72t67.5 60.5q11 -11 35 -33q-58 -52 -62 -121q27 -3 45 -23t18 -48zM197 542q0 -30 -21 -51t-50 -21q-38 0 -57 29.5t-19 73.5q1 29 9 61.5t34.5 72t67.5 60.5q6 -6 17.5 -17t17.5 -16
q-58 -54 -62 -121q27 -3 45 -23t18 -48z" />
    <glyph glyph-name="quotedblright" unicode="&#x201d;" horiz-adv-x="444" 
d="M50 696q0 29 21 50t50 21q38 0 57 -29.5t18 -72.5q0 -49 -25.5 -106.5t-84.5 -88.5l-35 34q57 53 62 121q-27 3 -45 23t-18 48zM246 696q0 29 21 50t51 21q38 0 57 -29.5t18 -72.5q0 -49 -25.5 -106.5t-84.5 -88.5l-35 34q57 53 62 121q-28 3 -46 23t-18 48z" />
    <glyph glyph-name="quotedblbase" unicode="&#x201e;" horiz-adv-x="428" 
d="M231 60q0 29 21 50t51 21q38 0 56.5 -29t18.5 -73q-1 -50 -26.5 -107t-83.5 -87l-36 33q58 52 62 121q-27 3 -45 23t-18 48zM34 60q0 29 21 50t51 21q38 0 57 -29.5t18 -72.5q0 -49 -25.5 -106t-84.5 -88l-35 33q57 53 62 121q-28 3 -46 23t-18 48z" />
    <glyph glyph-name="dagger" unicode="&#x2020;" horiz-adv-x="516" 
d="M480 520v-93h-163v-512h-118v512h-163v93h163v203h118v-203h163z" />
    <glyph glyph-name="daggerdbl" unicode="&#x2021;" horiz-adv-x="516" 
d="M480 520v-93h-163v-229h163v-92h-163v-191h-118v191h-163v92h163v229h-163v93h163v203h118v-203h163z" />
    <glyph glyph-name="bullet" unicode="&#x2022;" horiz-adv-x="345" 
d="M304 318q0 -47 -36 -83.5t-96 -36.5q-59 0 -95 36.5t-36 83.5q0 48 36 84.5t95 36.5q58 0 95 -37t37 -84z" />
    <glyph glyph-name="ellipsis" unicode="&#x2026;" horiz-adv-x="890" 
d="M699 60q0 29 21 50t51 21q29 0 50 -21t21 -50q0 -30 -21 -51t-50 -21q-30 0 -51 21t-21 51zM373 60q0 29 21 50t51 21q29 0 50 -21t21 -50q0 -30 -21 -51t-50 -21q-30 0 -51 21t-21 51zM48 60q0 29 21 50t50 21q30 0 51 -21t21 -50q0 -30 -21 -51t-51 -21q-29 0 -50 21
t-21 51z" />
    <glyph glyph-name="perthousand" unicode="&#x2030;" horiz-adv-x="1546" 
d="M426 438q0 -106 -50.5 -164t-137.5 -58q-86 0 -137 58.5t-51 163.5t51 163.5t137 58.5q87 0 137.5 -58.5t50.5 -163.5zM312 438q0 60 -18 86t-56 26q-37 0 -55 -26t-18 -86q0 -63 17.5 -88t55.5 -25q39 0 56.5 25t17.5 88zM1046 211q0 -106 -50.5 -164t-137.5 -58
q-86 0 -137 58.5t-51 163.5t51 163.5t137 58.5q87 0 137.5 -58.5t50.5 -163.5zM932 211q0 59 -18 85.5t-56 26.5q-37 0 -55 -26t-18 -86q0 -62 17.5 -87t55.5 -25t56 25t18 87zM653 650h129l-339 -650h-128zM1496 211q0 -106 -50.5 -164t-137.5 -58q-86 0 -137 58.5
t-51 163.5t51 163.5t137 58.5q87 0 137.5 -58.5t50.5 -163.5zM1382 211q0 59 -18 85.5t-56 26.5q-37 0 -55 -26t-18 -86q0 -62 17.5 -87t55.5 -25t56 25t18 87z" />
    <glyph glyph-name="guilsinglleft" unicode="&#x2039;" horiz-adv-x="329" 
d="M297 149v-110l-265 206v43l265 206v-110l-170 -118z" />
    <glyph glyph-name="guilsinglright" unicode="&#x203a;" horiz-adv-x="329" 
d="M32 39v110l170 117l-170 118v110l265 -206v-43z" />
    <glyph glyph-name="fraction" unicode="&#x2044;" horiz-adv-x="318" 
d="M268 727h97l-318 -818h-94z" />
    <glyph glyph-name="Euro" unicode="&#x20ac;" horiz-adv-x="635" 
d="M232 344v-40v-19h263v-84h-246q35 -101 159 -101q49 0 96 17t69 37l44 -103q-96 -62 -209 -62q-238 0 -285 212h-103v84h92v19v40v13h-92v84h102q22 111 97 165t189 54q111 0 209 -62l-44 -103q-79 53 -165 53q-127 0 -161 -107h248v-84h-263v-13z" />
    <glyph glyph-name="trademark" unicode="&#x2122;" horiz-adv-x="946" 
d="M892 650v-399h-91v324l-87 -324h-82l-90 324v-324h-91v399h154l69 -276l68 276h150zM366 650v-82h-120v-317h-90v317h-120v82h330z" />
    <glyph glyph-name="minus" unicode="&#x2212;" horiz-adv-x="629" 
d="M586 379v-110h-544v110h544z" />
    <glyph glyph-name="fi" unicode="&#xfb01;" horiz-adv-x="555" 
d="M50 0v524q0 187 186 187q76 0 133 -27l-34 -104q-46 22 -99 22q-70 0 -70 -78v-24h167v-110h-167v-390h-116zM386 0v500h116v-500h-116zM374 637q0 29 20.5 49.5t49.5 20.5t49.5 -20.5t20.5 -49.5t-20.5 -50t-49.5 -21t-49.5 21t-20.5 50z" />
    <glyph glyph-name="fl" unicode="&#xfb02;" horiz-adv-x="600" 
d="M50 0v524q0 187 186 187q76 0 133 -27l-34 -104q-46 22 -99 22q-70 0 -70 -78v-24h167v-110h-167v-390h-116zM384 174v526h115v-527q0 -73 38 -73q14 0 30 7l34 -103q-43 -13 -81 -13q-136 0 -136 183z" />
  </font>
</defs>
</svg>
